solid OBJECT
  facet normal 0 -1 -0
    outer loop
      vertex -0.73082029819488525 0 0.4960404634475708
      vertex -0.73328369855880737 0 0.4960404634475708
      vertex -0.73328369855880737 0 0.48187336325645447
    endloop
  endfacet
  facet normal -0 -1 0
    outer loop
      vertex -0.73082029819488525 0 0.4960404634475708
      vertex -0.73328369855880737 0 0.48187336325645447
      vertex -0.73082029819488525 0 0.48187336325645447
    endloop
  endfacet
  facet normal 0 -1 -0
    outer loop
      vertex -0.73328369855880737 0 0.48187336325645447
      vertex -0.73821049928665161 0 0.48187336325645447
      vertex -0.73821049928665161 0 0.45353910326957703
    endloop
  endfacet
  facet normal -0 -1 0
    outer loop
      vertex -0.73328369855880737 0 0.48187336325645447
      vertex -0.73821049928665161 0 0.45353910326957703
      vertex -0.73328369855880737 0 0.45353910326957703
    endloop
  endfacet
  facet normal -0 -1 0
    outer loop
      vertex -0.74806410074234009 0 -0.33315259218215942
      vertex -0.74806410074234009 0 -0.41648858785629272
      vertex -0.72838419675827026 0 -0.4170195460319519
    endloop
  endfacet
  facet normal -0 -1 -0
    outer loop
      vertex -0.74806410074234009 0 -0.33315259218215942
      vertex -0.72838419675827026 0 -0.4170195460319519
      vertex -0.72838419675827026 0 -0.33421450853347778
    endloop
  endfacet
  facet normal -0 -1 0
    outer loop
      vertex -0.74806410074234009 0 -0.16648063063621521
      vertex -0.74806410074234009 0 -0.24981661140918732
      vertex -0.72838419675827026 0 -0.25140947103500366
    endloop
  endfacet
  facet normal 0 -1 0
    outer loop
      vertex -0.74806410074234009 0 -0.16648063063621521
      vertex -0.72838419675827026 0 -0.25140947103500366
      vertex -0.72838419675827026 0 -0.16860444843769073
    endloop
  endfacet
  facet normal -0 -1 0
    outer loop
      vertex -0.74806410074234009 0 -0.24981661140918732
      vertex -0.74806410074234009 0 -0.33315259218215942
      vertex -0.72838419675827026 0 -0.33421450853347778
    endloop
  endfacet
  facet normal 0 -1 0
    outer loop
      vertex -0.74806410074234009 0 -0.24981661140918732
      vertex -0.72838419675827026 0 -0.33421450853347778
      vertex -0.72838419675827026 0 -0.25140947103500366
    endloop
  endfacet
  facet normal -0 -1 0
    outer loop
      vertex -0.74806410074234009 0 0.00019134666945319623
      vertex -0.74806410074234009 0 -0.083144642412662506
      vertex -0.72838419675827026 0 -0.085799418389797211
    endloop
  endfacet
  facet normal -0 -1 -0
    outer loop
      vertex -0.74806410074234009 0 0.00019134666945319623
      vertex -0.72838419675827026 0 -0.085799418389797211
      vertex -0.72838419675827026 0 -0.0029943906702101231
    endloop
  endfacet
  facet normal -0 -1 0
    outer loop
      vertex -0.74806410074234009 0 0.16686332225799561
      vertex -0.74806410074234009 0 0.083527334034442902
      vertex -0.72838419675827026 0 0.079810641705989838
    endloop
  endfacet
  facet normal -0 -1 -0
    outer loop
      vertex -0.74806410074234009 0 0.16686332225799561
      vertex -0.72838419675827026 0 0.079810641705989838
      vertex -0.72838419675827026 0 0.16261567175388336
    endloop
  endfacet
  facet normal -0 -1 0
    outer loop
      vertex -0.74806410074234009 0 0.083527334034442902
      vertex -0.74806410074234009 0 0.00019134666945319623
      vertex -0.72838419675827026 0 -0.0029943906702101231
    endloop
  endfacet
  facet normal -0 -1 -0
    outer loop
      vertex -0.74806410074234009 0 0.083527334034442902
      vertex -0.72838419675827026 0 -0.0029943906702101231
      vertex -0.72838419675827026 0 0.079810641705989838
    endloop
  endfacet
  facet normal -0 -1 0
    outer loop
      vertex -0.74806410074234009 0 -0.083144642412662506
      vertex -0.74806410074234009 0 -0.16648063063621521
      vertex -0.72838419675827026 0 -0.16860444843769073
    endloop
  endfacet
  facet normal -0 -1 -0
    outer loop
      vertex -0.74806410074234009 0 -0.083144642412662506
      vertex -0.72838419675827026 0 -0.16860444843769073
      vertex -0.72838419675827026 0 -0.085799418389797211
    endloop
  endfacet
  facet normal -0 -1 0
    outer loop
      vertex -0.74806410074234009 0 0.33353528380393982
      vertex -0.74806410074234009 0 0.25019931793212891
      vertex -0.72838419675827026 0 0.24542069435119629
    endloop
  endfacet
  facet normal -0 -1 -0
    outer loop
      vertex -0.74806410074234009 0 0.33353528380393982
      vertex -0.72838419675827026 0 0.24542069435119629
      vertex -0.72838419675827026 0 0.32822573184967041
    endloop
  endfacet
  facet normal 0 -1 0
    outer loop
      vertex -0.72838419675827026 0 0.41103076934814453
      vertex -0.73821049928665161 0 0.45353910326957703
      vertex -0.74806410074234009 0 0.41687127947807312
    endloop
  endfacet
  facet normal -0 -1 0
    outer loop
      vertex -0.74806410074234009 0 0.41687127947807312
      vertex -0.74806410074234009 0 0.33353528380393982
      vertex -0.72838419675827026 0 0.32822573184967041
    endloop
  endfacet
  facet normal 0 -1 0
    outer loop
      vertex -0.74806410074234009 0 0.41687127947807312
      vertex -0.72838419675827026 0 0.32822573184967041
      vertex -0.72838419675827026 0 0.41103076934814453
    endloop
  endfacet
  facet normal -0 -1 -0
    outer loop
      vertex -0.73821049928665161 0 0.45353910326957703
      vertex -0.72838419675827026 0 0.41103076934814453
      vertex -0.73328369855880737 0 0.45353910326957703
    endloop
  endfacet
  facet normal 0 -1 0
    outer loop
      vertex -0.73821049928665161 0 0.48187336325645447
      vertex -0.73328369855880737 0 0.4960404634475708
      vertex -0.74806410074234009 0 0.50020724534988403
    endloop
  endfacet
  facet normal 0 -1 0
    outer loop
      vertex -0.73821049928665161 0 0.45353910326957703
      vertex -0.73821049928665161 0 0.48187336325645447
      vertex -0.74806410074234009 0 0.50020724534988403
    endloop
  endfacet
  facet normal 0 -1 0
    outer loop
      vertex -0.73328369855880737 0 0.48187336325645447
      vertex -0.73328369855880737 0 0.4960404634475708
      vertex -0.73821049928665161 0 0.48187336325645447
    endloop
  endfacet
  facet normal -0 -1 -0
    outer loop
      vertex -0.73328369855880737 0 0.48187336325645447
      vertex -0.73328369855880737 0 0.45353910326957703
      vertex -0.73082029819488525 0 0.48187336325645447
    endloop
  endfacet
  facet normal 0 -1 -0
    outer loop
      vertex -0.74806410074234009 0 0.41687127947807312
      vertex -0.73821049928665161 0 0.45353910326957703
      vertex -0.74806410074234009 0 0.50020724534988403
    endloop
  endfacet
  facet normal -0 -1 0
    outer loop
      vertex -0.74806410074234009 0 0.25019931793212891
      vertex -0.74806410074234009 0 0.16686332225799561
      vertex -0.72838419675827026 0 0.16261567175388336
    endloop
  endfacet
  facet normal -0 -1 -0
    outer loop
      vertex -0.74806410074234009 0 0.25019931793212891
      vertex -0.72838419675827026 0 0.16261567175388336
      vertex -0.72838419675827026 0 0.24542069435119629
    endloop
  endfacet
  facet normal -0 -1 -0
    outer loop
      vertex -0.74806410074234009 0 -0.41648858785629272
      vertex -0.74806410074234009 0 -0.49982458353042603
      vertex -0.72838419675827026 0 -0.49982458353042603
    endloop
  endfacet
  facet normal -0 -1 -0
    outer loop
      vertex -0.74806410074234009 0 -0.41648858785629272
      vertex -0.72838419675827026 0 -0.49982458353042603
      vertex -0.72838419675827026 0 -0.4170195460319519
    endloop
  endfacet
  facet normal 0 -1 -0
    outer loop
      vertex -0.72838419675827026 0 0.49383577704429626
      vertex -0.73082029819488525 0 0.4960404634475708
      vertex -0.73082029819488525 0 0.48187336325645447
    endloop
  endfacet
  facet normal -0 -1 0
    outer loop
      vertex -0.72835689783096313 0 0.50020724534988403
      vertex -0.73328369855880737 0 0.4960404634475708
      vertex -0.73082029819488525 0 0.4960404634475708
    endloop
  endfacet
  facet normal -0 -1 0
    outer loop
      vertex -0.73082029819488525 0 0.4960404634475708
      vertex -0.72838419675827026 0 0.49383577704429626
      vertex -0.72835689783096313 0 0.50020724534988403
    endloop
  endfacet
  facet normal -0 -1 0
    outer loop
      vertex -0.73082029819488525 0 0.48187336325645447
      vertex -0.72838419675827026 0 0.41103076934814453
      vertex -0.72838419675827026 0 0.49383577704429626
    endloop
  endfacet
  facet normal 0 -1 0
    outer loop
      vertex -0.72838419675827026 0 0.41103076934814453
      vertex -0.73082029819488525 0 0.48187336325645447
      vertex -0.73328369855880737 0 0.45353910326957703
    endloop
  endfacet
  facet normal -0 -1 -0
    outer loop
      vertex -0.74806410074234009 0 0.50020724534988403
      vertex -0.73328369855880737 0 0.4960404634475708
      vertex -0.72835689783096313 0 0.50020724534988403
    endloop
  endfacet
endsolid OBJECT
