solid OBJECT
  facet normal -0 1 -0
    outer loop
      vertex -0.6384626030921936 0 0.45353910326957703
      vertex -0.64338940382003784 0 0.45353910326957703
      vertex -0.64338940382003784 0 0.48187336325645447
    endloop
  endfacet
  facet normal 0 1 0
    outer loop
      vertex -0.6384626030921936 0 0.45353910326957703
      vertex -0.64338940382003784 0 0.48187336325645447
      vertex -0.6384626030921936 0 0.48187336325645447
    endloop
  endfacet
  facet normal -0 1 -0
    outer loop
      vertex -0.64338940382003784 0 0.48187336325645447
      vertex -0.64585280418395996 0 0.48187336325645447
      vertex -0.64585280418395996 0 0.4960404634475708
    endloop
  endfacet
  facet normal 0 1 0
    outer loop
      vertex -0.64338940382003784 0 0.48187336325645447
      vertex -0.64585280418395996 0 0.4960404634475708
      vertex -0.64338940382003784 0 0.4960404634475708
    endloop
  endfacet
  facet normal -0 1 -0
    outer loop
      vertex -0.64585280418395996 0 0.4960404634475708
      vertex -0.64828890562057495 0 0.49383577704429626
      vertex -0.64831620454788208 0 0.50020724534988403
    endloop
  endfacet
  facet normal 0 1 0
    outer loop
      vertex -0.64828890562057495 0 0.32822573184967041
      vertex -0.64828890562057495 0 0.41103076934814453
      vertex -0.62860900163650513 0 0.41687127947807312
    endloop
  endfacet
  facet normal 0 1 -0
    outer loop
      vertex -0.64828890562057495 0 0.32822573184967041
      vertex -0.62860900163650513 0 0.41687127947807312
      vertex -0.62860900163650513 0 0.33353528380393982
    endloop
  endfacet
  facet normal 0 1 -0
    outer loop
      vertex -0.64828890562057495 0 0.41103076934814453
      vertex -0.64828890562057495 0 0.49383577704429626
      vertex -0.64585280418395996 0 0.48187336325645447
    endloop
  endfacet
  facet normal -0 1 -0
    outer loop
      vertex -0.64831620454788208 0 0.50020724534988403
      vertex -0.64338940382003784 0 0.4960404634475708
      vertex -0.64585280418395996 0 0.4960404634475708
    endloop
  endfacet
  facet normal 0 1 0
    outer loop
      vertex -0.64828890562057495 0 0.24542069435119629
      vertex -0.64828890562057495 0 0.32822573184967041
      vertex -0.62860900163650513 0 0.33353528380393982
    endloop
  endfacet
  facet normal 0 1 -0
    outer loop
      vertex -0.64828890562057495 0 0.24542069435119629
      vertex -0.62860900163650513 0 0.33353528380393982
      vertex -0.62860900163650513 0 0.25019931793212891
    endloop
  endfacet
  facet normal 0 1 -0
    outer loop
      vertex -0.64585280418395996 0 0.48187336325645447
      vertex -0.64338940382003784 0 0.45353910326957703
      vertex -0.64828890562057495 0 0.41103076934814453
    endloop
  endfacet
  facet normal 0 1 0
    outer loop
      vertex -0.64828890562057495 0 0.16261567175388336
      vertex -0.64828890562057495 0 0.24542069435119629
      vertex -0.62860900163650513 0 0.25019931793212891
    endloop
  endfacet
  facet normal 0 1 -0
    outer loop
      vertex -0.64828890562057495 0 0.16261567175388336
      vertex -0.62860900163650513 0 0.25019931793212891
      vertex -0.62860900163650513 0 0.16686332225799561
    endloop
  endfacet
  facet normal -0 1 0
    outer loop
      vertex -0.64585280418395996 0 0.4960404634475708
      vertex -0.64585280418395996 0 0.48187336325645447
      vertex -0.64828890562057495 0 0.49383577704429626
    endloop
  endfacet
  facet normal -0 1 0
    outer loop
      vertex -0.64338940382003784 0 0.4960404634475708
      vertex -0.64831620454788208 0 0.50020724534988403
      vertex -0.62860900163650513 0 0.50020724534988403
    endloop
  endfacet
  facet normal 0 1 0
    outer loop
      vertex -0.64828890562057495 0 0.079810641705989838
      vertex -0.64828890562057495 0 0.16261567175388336
      vertex -0.62860900163650513 0 0.16686332225799561
    endloop
  endfacet
  facet normal 0 1 -0
    outer loop
      vertex -0.64828890562057495 0 0.079810641705989838
      vertex -0.62860900163650513 0 0.16686332225799561
      vertex -0.62860900163650513 0 0.083527334034442902
    endloop
  endfacet
  facet normal 0 1 0
    outer loop
      vertex -0.64828890562057495 0 -0.085799418389797211
      vertex -0.64828890562057495 0 -0.0029943906702101231
      vertex -0.62860900163650513 0 0.00019134666945319623
    endloop
  endfacet
  facet normal 0 1 -0
    outer loop
      vertex -0.64828890562057495 0 -0.085799418389797211
      vertex -0.62860900163650513 0 0.00019134666945319623
      vertex -0.62860900163650513 0 -0.083144642412662506
    endloop
  endfacet
  facet normal 0 1 0
    outer loop
      vertex -0.64828890562057495 0 -0.0029943906702101231
      vertex -0.64828890562057495 0 0.079810641705989838
      vertex -0.62860900163650513 0 0.083527334034442902
    endloop
  endfacet
  facet normal 0 1 -0
    outer loop
      vertex -0.64828890562057495 0 -0.0029943906702101231
      vertex -0.62860900163650513 0 0.083527334034442902
      vertex -0.62860900163650513 0 0.00019134666945319623
    endloop
  endfacet
  facet normal 0 1 0
    outer loop
      vertex -0.64828890562057495 0 -0.25140947103500366
      vertex -0.64828890562057495 0 -0.16860444843769073
      vertex -0.62860900163650513 0 -0.16648063063621521
    endloop
  endfacet
  facet normal -0 1 0
    outer loop
      vertex -0.64828890562057495 0 -0.25140947103500366
      vertex -0.62860900163650513 0 -0.16648063063621521
      vertex -0.62860900163650513 0 -0.24981661140918732
    endloop
  endfacet
  facet normal 0 1 0
    outer loop
      vertex -0.64828890562057495 0 -0.4170195460319519
      vertex -0.64828890562057495 0 -0.33421450853347778
      vertex -0.62860900163650513 0 -0.33315259218215942
    endloop
  endfacet
  facet normal 0 1 -0
    outer loop
      vertex -0.64828890562057495 0 -0.4170195460319519
      vertex -0.62860900163650513 0 -0.33315259218215942
      vertex -0.62860900163650513 0 -0.41648858785629272
    endloop
  endfacet
  facet normal 0 1 0
    outer loop
      vertex -0.64828890562057495 0 -0.49982458353042603
      vertex -0.64828890562057495 0 -0.4170195460319519
      vertex -0.62860900163650513 0 -0.41648858785629272
    endloop
  endfacet
  facet normal 0 1 -0
    outer loop
      vertex -0.64828890562057495 0 -0.49982458353042603
      vertex -0.62860900163650513 0 -0.41648858785629272
      vertex -0.62860900163650513 0 -0.49982458353042603
    endloop
  endfacet
  facet normal 0 1 0
    outer loop
      vertex -0.64828890562057495 0 -0.33421450853347778
      vertex -0.64828890562057495 0 -0.25140947103500366
      vertex -0.62860900163650513 0 -0.24981661140918732
    endloop
  endfacet
  facet normal 0 1 -0
    outer loop
      vertex -0.64828890562057495 0 -0.33421450853347778
      vertex -0.62860900163650513 0 -0.24981661140918732
      vertex -0.62860900163650513 0 -0.33315259218215942
    endloop
  endfacet
  facet normal 0 1 0
    outer loop
      vertex -0.64828890562057495 0 -0.16860444843769073
      vertex -0.64828890562057495 0 -0.085799418389797211
      vertex -0.62860900163650513 0 -0.083144642412662506
    endloop
  endfacet
  facet normal 0 1 -0
    outer loop
      vertex -0.64828890562057495 0 -0.16860444843769073
      vertex -0.62860900163650513 0 -0.083144642412662506
      vertex -0.62860900163650513 0 -0.16648063063621521
    endloop
  endfacet
  facet normal -0 1 -0
    outer loop
      vertex -0.6384626030921936 0 0.48187336325645447
      vertex -0.64338940382003784 0 0.48187336325645447
      vertex -0.64338940382003784 0 0.4960404634475708
    endloop
  endfacet
  facet normal -0 1 0
    outer loop
      vertex -0.6384626030921936 0 0.45353910326957703
      vertex -0.62860900163650513 0 0.41687127947807312
      vertex -0.64828890562057495 0 0.41103076934814453
    endloop
  endfacet
  facet normal 0 1 0
    outer loop
      vertex -0.6384626030921936 0 0.45353910326957703
      vertex -0.6384626030921936 0 0.48187336325645447
      vertex -0.62860900163650513 0 0.50020724534988403
    endloop
  endfacet
  facet normal 0 1 0
    outer loop
      vertex -0.64585280418395996 0 0.48187336325645447
      vertex -0.64338940382003784 0 0.48187336325645447
      vertex -0.64338940382003784 0 0.45353910326957703
    endloop
  endfacet
  facet normal 0 1 0
    outer loop
      vertex -0.6384626030921936 0 0.45353910326957703
      vertex -0.62860900163650513 0 0.50020724534988403
      vertex -0.62860900163650513 0 0.41687127947807312
    endloop
  endfacet
  facet normal 0 1 0
    outer loop
      vertex -0.6384626030921936 0 0.48187336325645447
      vertex -0.64338940382003784 0 0.4960404634475708
      vertex -0.62860900163650513 0 0.50020724534988403
    endloop
  endfacet
  facet normal -0 1 0
    outer loop
      vertex -0.6384626030921936 0 0.45353910326957703
      vertex -0.64828890562057495 0 0.41103076934814453
      vertex -0.64338940382003784 0 0.45353910326957703
    endloop
  endfacet
endsolid OBJECT
