solid OBJECT
  facet normal 0 1 0
    outer loop
      vertex -0.080479040741920471 0 -0.06476573646068573
      vertex -0.43761059641838074 0 -0.06476573646068573
      vertex -0.43761059641838074 0 0
    endloop
  endfacet
  facet normal 0 1 0
    outer loop
      vertex -0.080479040741920471 0 -0.06476573646068573
      vertex -0.43761059641838074 0 0
      vertex -0.080479040741920471 0 0
    endloop
  endfacet
  facet normal 0 1 0
    outer loop
      vertex -0.080479040741920471 0 0
      vertex -0.43761059641838074 0 0
      vertex -0.43761059641838074 0 0.06476573646068573
    endloop
  endfacet
  facet normal 0 1 0
    outer loop
      vertex -0.080479040741920471 0 0
      vertex -0.43761059641838074 0 0.06476573646068573
      vertex -0.080479040741920471 0 0.06476573646068573
    endloop
  endfacet
  facet normal 0 1 0
    outer loop
      vertex -0.43761059641838074 0 0.06476573646068573
      vertex -0.766731858253479 0 0
      vertex -0.766731858253479 0 0.10420376807451248
    endloop
  endfacet
  facet normal 0 1 0
    outer loop
      vertex -0.43761059641838074 0 0
      vertex -0.766731858253479 0 0
      vertex -0.43761059641838074 0 0.06476573646068573
    endloop
  endfacet
  facet normal 0 1 -0
    outer loop
      vertex -0.43761059641838074 0 0.06476573646068573
      vertex 0.12441357225179672 0 0.12895943224430084
      vertex -0.080479040741920471 0 0.06476573646068573
    endloop
  endfacet
  facet normal -0 1 0
    outer loop
      vertex 0.12441357225179672 0 0.12895943224430084
      vertex -0.43761059641838074 0 0.06476573646068573
      vertex -0.766731858253479 0 0.10420376807451248
    endloop
  endfacet
  facet normal 0 1 0
    outer loop
      vertex -0.766731858253479 0 -0.10420376807451248
      vertex -0.766731858253479 0 0
      vertex -0.43761059641838074 0 -0.06476573646068573
    endloop
  endfacet
  facet normal 0 1 -0
    outer loop
      vertex -0.43761059641838074 0 0
      vertex -0.43761059641838074 0 -0.06476573646068573
      vertex -0.766731858253479 0 0
    endloop
  endfacet
  facet normal 0 1 0
    outer loop
      vertex 0.12441357225179672 0 -0.12895943224430084
      vertex -0.766731858253479 0 -0.10420376807451248
      vertex -0.43761059641838074 0 -0.06476573646068573
    endloop
  endfacet
  facet normal -0 1 0
    outer loop
      vertex -0.080479040741920471 0 0
      vertex -0.080479040741920471 0 0.06476573646068573
      vertex 0.82910376787185669 0 0.10587092489004135
    endloop
  endfacet
  facet normal 0 1 -0
    outer loop
      vertex -0.080479040741920471 0 0
      vertex 0.82910376787185669 0 0.10587092489004135
      vertex 0.82910376787185669 0 -0.10587092489004135
    endloop
  endfacet
  facet normal 0 1 0
    outer loop
      vertex 0.82910376787185669 0 -0.10587092489004135
      vertex 0.82910376787185669 0 0.10587092489004135
      vertex 1.7277933359146118 0 0.049066327512264252
    endloop
  endfacet
  facet normal -0 1 -0
    outer loop
      vertex 1.7277933359146118 0 0.049066327512264252
      vertex 2.0343000888824463 0 0
      vertex 1.7277933359146118 0 -0.049066327512264252
    endloop
  endfacet
  facet normal 0 1 -0
    outer loop
      vertex -0.43761059641838074 0 -0.06476573646068573
      vertex -0.080479040741920471 0 -0.06476573646068573
      vertex 0.12441357225179672 0 -0.12895943224430084
    endloop
  endfacet
  facet normal 0 1 0
    outer loop
      vertex 0.82910376787185669 0 -0.10587092489004135
      vertex 0.12441357225179672 0 -0.12895943224430084
      vertex -0.080479040741920471 0 -0.06476573646068573
    endloop
  endfacet
  facet normal 0 1 0
    outer loop
      vertex 0.82910376787185669 0 -0.10587092489004135
      vertex -0.080479040741920471 0 -0.06476573646068573
      vertex -0.080479040741920471 0 0
    endloop
  endfacet
  facet normal 0 1 -0
    outer loop
      vertex 0.82910376787185669 0 -0.10587092489004135
      vertex 1.7277933359146118 0 0.049066327512264252
      vertex 1.7277933359146118 0 -0.049066327512264252
    endloop
  endfacet
  facet normal 0 1 0
    outer loop
      vertex 0.12441357225179672 0 0.12895943224430084
      vertex 0.82910376787185669 0 0.10587092489004135
      vertex -0.080479040741920471 0 0.06476573646068573
    endloop
  endfacet
endsolid OBJECT
