solid OBJECT
  facet normal 0 1 0
    outer loop
      vertex -1.1132155656814575 0 0.4457167387008667
      vertex -1.2408769130706787 0 0.4457167387008667
      vertex -1.2408769130706787 0 0.47370371222496033
    endloop
  endfacet
  facet normal 0 1 0
    outer loop
      vertex -1.1132155656814575 0 0.4457167387008667
      vertex -1.2408769130706787 0 0.47370371222496033
      vertex -1.1132155656814575 0 0.47370371222496033
    endloop
  endfacet
  facet normal 0 1 0
    outer loop
      vertex -1.1132155656814575 0 0.47370371222496033
      vertex -1.2408769130706787 0 0.47370371222496033
      vertex -1.2408769130706787 0 0.50169068574905396
    endloop
  endfacet
  facet normal 0 1 0
    outer loop
      vertex -1.1132155656814575 0 0.47370371222496033
      vertex -1.2408769130706787 0 0.50169068574905396
      vertex -1.1132155656814575 0 0.50169068574905396
    endloop
  endfacet
  facet normal 0 1 0
    outer loop
      vertex -1.3535192012786865 0 0.47370371222496033
      vertex -1.3535192012786865 0 0.52458399534225464
      vertex -1.2408769130706787 0 0.50169068574905396
    endloop
  endfacet
  facet normal 0 1 -0
    outer loop
      vertex -1.3535192012786865 0 0.47370371222496033
      vertex -1.2408769130706787 0 0.50169068574905396
      vertex -1.2408769130706787 0 0.47370371222496033
    endloop
  endfacet
  facet normal 0 1 0
    outer loop
      vertex -1.1132155656814575 0 0.50169068574905396
      vertex -1.2408769130706787 0 0.50169068574905396
      vertex -1.3535192012786865 0 0.52458399534225464
    endloop
  endfacet
  facet normal -0 1 0
    outer loop
      vertex -1.1132155656814575 0 0.50169068574905396
      vertex -1.3535192012786865 0 0.52458399534225464
      vertex -0.98380386829376221 0 0.52929210662841797
    endloop
  endfacet
  facet normal -0 1 0
    outer loop
      vertex -1.3535192012786865 0 0.4228234589099884
      vertex -1.3535192012786865 0 0.47370371222496033
      vertex -1.2408769130706787 0 0.47370371222496033
    endloop
  endfacet
  facet normal 0 1 -0
    outer loop
      vertex -1.3535192012786865 0 0.4228234589099884
      vertex -1.2408769130706787 0 0.47370371222496033
      vertex -1.2408769130706787 0 0.4457167387008667
    endloop
  endfacet
  facet normal 0 1 0
    outer loop
      vertex -0.98380386829376221 0 0.41811534762382507
      vertex -1.1132155656814575 0 0.4457167387008667
      vertex -1.1132155656814575 0 0.47370371222496033
    endloop
  endfacet
  facet normal 0 1 -0
    outer loop
      vertex -1.3535192012786865 0 0.4228234589099884
      vertex -1.2408769130706787 0 0.4457167387008667
      vertex -1.1132155656814575 0 0.4457167387008667
    endloop
  endfacet
  facet normal 0 1 0
    outer loop
      vertex -0.98380386829376221 0 0.41811534762382507
      vertex -1.3535192012786865 0 0.4228234589099884
      vertex -1.1132155656814575 0 0.4457167387008667
    endloop
  endfacet
  facet normal 0 1 -0
    outer loop
      vertex -1.1132155656814575 0 0.47370371222496033
      vertex -1.1132155656814575 0 0.50169068574905396
      vertex -0.98380386829376221 0 0.52929210662841797
    endloop
  endfacet
  facet normal 0 1 0
    outer loop
      vertex -0.72380697727203369 0 0.41844078898429871
      vertex -1.1132155656814575 0 0.47370371222496033
      vertex -0.72380697727203369 0 0.52896666526794434
    endloop
  endfacet
  facet normal 0 1 -0
    outer loop
      vertex -0.39312431216239929 0 0.5195346474647522
      vertex -0.39312431216239929 0 0.42787277698516846
      vertex -0.72380697727203369 0 0.52896666526794434
    endloop
  endfacet
  facet normal 0 1 -0
    outer loop
      vertex -0.12447346746921539 0 0.50441724061965942
      vertex -0.12447346746921539 0 0.44299024343490601
      vertex -0.39312431216239929 0 0.5195346474647522
    endloop
  endfacet
  facet normal -0 1 -0
    outer loop
      vertex -0.98380386829376221 0 0.41811534762382507
      vertex -1.1132155656814575 0 0.47370371222496033
      vertex -0.72380697727203369 0 0.41844078898429871
    endloop
  endfacet
  facet normal 0 1 0
    outer loop
      vertex -0.39312431216239929 0 0.42787277698516846
      vertex -0.39312431216239929 0 0.5195346474647522
      vertex -0.12447346746921539 0 0.44299024343490601
    endloop
  endfacet
  facet normal -0 1 -0
    outer loop
      vertex -0.72380697727203369 0 0.52896666526794434
      vertex -0.39312431216239929 0 0.42787277698516846
      vertex -0.72380697727203369 0 0.41844078898429871
    endloop
  endfacet
  facet normal 0 1 0
    outer loop
      vertex 0.14837878942489624 0 0.47370371222496033
      vertex -0.12447346746921539 0 0.44299024343490601
      vertex -0.12447346746921539 0 0.50441724061965942
    endloop
  endfacet
  facet normal 0 1 0
    outer loop
      vertex -0.72380697727203369 0 0.52896666526794434
      vertex -1.1132155656814575 0 0.47370371222496033
      vertex -0.98380386829376221 0 0.52929210662841797
    endloop
  endfacet
endsolid OBJECT
